<svg xmlns="http://www.w3.org/2000/svg" xmlns:xlink="http://www.w3.org/1999/xlink" width="50" zoomAndPan="magnify" viewBox="0 0 37.5 37.5" height="50" preserveAspectRatio="xMidYMid meet" version="1"><defs><clipPath id="5f117057cf"><path d="M 0.667969 3 L 36.195312 3 L 36.195312 34 L 0.667969 34 Z M 0.667969 3" clip-rule="nonzero"/></clipPath></defs><path fill="#53c1de" d="M 21.605469 18.476562 C 21.605469 16.769531 20.183594 15.386719 18.433594 15.386719 C 16.679688 15.386719 15.257812 16.769531 15.257812 18.476562 C 15.257812 20.179688 16.679688 21.5625 18.433594 21.5625 C 20.183594 21.5625 21.605469 20.179688 21.605469 18.476562 Z M 21.605469 18.476562" fill-opacity="1" fill-rule="nonzero"/><g clip-path="url(#5f117057cf)"><path fill="#53c1de" d="M 28.734375 12.742188 C 29.40625 10.09375 30.246094 5.179688 27.277344 3.511719 C 24.324219 1.855469 20.480469 5.03125 18.449219 6.941406 C 16.425781 5.050781 12.472656 1.886719 9.503906 3.558594 C 6.550781 5.222656 7.460938 10.054688 8.148438 12.71875 C 5.390625 13.480469 0.667969 15.121094 0.667969 18.476562 C 0.667969 21.816406 5.386719 23.601562 8.125 24.363281 C 7.4375 27.042969 6.574219 31.808594 9.53125 33.46875 C 12.507812 35.140625 16.449219 32.050781 18.496094 30.121094 C 20.539062 32.039062 24.347656 35.148438 27.304688 33.484375 C 30.269531 31.8125 29.496094 26.964844 28.8125 24.285156 C 31.46875 23.519531 36.195312 21.773438 36.195312 18.476562 C 36.195312 15.15625 31.445312 13.5 28.734375 12.742188 Z M 28.398438 22.863281 C 27.949219 21.476562 27.34375 20.003906 26.597656 18.480469 C 27.308594 16.996094 27.890625 15.542969 28.328125 14.164062 C 30.316406 14.726562 34.675781 16.007812 34.675781 18.476562 C 34.675781 20.964844 30.492188 22.257812 28.398438 22.863281 Z M 26.542969 32.207031 C 24.339844 33.449219 21.0625 30.472656 19.554688 29.0625 C 20.554688 27.996094 21.554688 26.757812 22.53125 25.378906 C 24.25 25.230469 25.871094 24.988281 27.34375 24.660156 C 27.824219 26.554688 28.757812 30.957031 26.542969 32.207031 Z M 10.289062 32.1875 C 8.082031 30.949219 9.089844 26.699219 9.597656 24.726562 C 11.050781 25.039062 12.664062 25.261719 14.386719 25.398438 C 15.367188 26.746094 16.398438 27.984375 17.433594 29.066406 C 16.152344 30.273438 12.503906 33.429688 10.289062 32.1875 Z M 2.1875 18.476562 C 2.1875 15.976562 6.519531 14.703125 8.554688 14.144531 C 9 15.550781 9.582031 17.023438 10.285156 18.511719 C 9.574219 20.019531 8.980469 21.515625 8.53125 22.941406 C 6.59375 22.398438 2.1875 20.976562 2.1875 18.476562 Z M 10.265625 4.835938 C 12.480469 3.589844 15.914062 6.625 17.386719 7.992188 C 16.351562 9.074219 15.332031 10.300781 14.359375 11.640625 C 12.6875 11.789062 11.089844 12.03125 9.617188 12.355469 C 9.066406 10.207031 8.054688 6.082031 10.265625 4.835938 Z M 23.617188 13.246094 C 24.75 13.382812 25.835938 13.570312 26.855469 13.796875 C 26.550781 14.75 26.167969 15.75 25.71875 16.773438 C 25.070312 15.570312 24.371094 14.390625 23.617188 13.246094 Z M 18.449219 9.050781 C 19.148438 9.789062 19.851562 10.613281 20.539062 11.507812 C 19.140625 11.441406 17.738281 11.441406 16.339844 11.503906 C 17.03125 10.621094 17.738281 9.796875 18.449219 9.050781 Z M 11.15625 16.773438 C 10.714844 15.753906 10.335938 14.75 10.027344 13.78125 C 11.042969 13.558594 12.121094 13.378906 13.25 13.242188 C 12.496094 14.386719 11.796875 15.566406 11.15625 16.773438 Z M 13.28125 23.8125 C 12.117188 23.6875 11.019531 23.515625 10.007812 23.300781 C 10.320312 22.3125 10.707031 21.289062 11.160156 20.246094 C 11.808594 21.46875 12.515625 22.65625 13.28125 23.8125 Z M 18.492188 28.003906 C 17.773438 27.25 17.054688 26.414062 16.351562 25.515625 C 17.761719 25.566406 19.167969 25.566406 20.578125 25.507812 C 19.882812 26.421875 19.1875 27.257812 18.492188 28.003906 Z M 25.734375 20.195312 C 26.210938 21.246094 26.609375 22.265625 26.925781 23.234375 C 25.898438 23.464844 24.785156 23.648438 23.613281 23.785156 C 24.371094 22.617188 25.082031 21.421875 25.734375 20.195312 Z M 21.683594 23.964844 C 19.535156 24.113281 17.367188 24.113281 15.214844 23.976562 C 13.992188 22.238281 12.902344 20.410156 11.964844 18.511719 C 12.898438 16.617188 13.980469 14.789062 15.195312 13.054688 C 17.351562 12.894531 19.519531 12.894531 21.671875 13.054688 C 22.878906 14.789062 23.960938 16.613281 24.917969 18.488281 C 23.96875 20.382812 22.882812 22.210938 21.683594 23.964844 Z M 26.519531 4.792969 C 28.734375 6.035156 27.75 10.453125 27.265625 12.371094 C 25.792969 12.039062 24.191406 11.792969 22.515625 11.640625 C 21.539062 10.289062 20.527344 9.058594 19.511719 7.992188 C 21 6.597656 24.328125 3.5625 26.519531 4.792969 Z M 26.519531 4.792969" fill-opacity="1" fill-rule="evenodd"/></g></svg>