<svg height="48" viewBox="0 0 48 48" width="48" xmlns="http://www.w3.org/2000/svg"><path d="m24 9.604c-6.4 0-10.4 3.199-12 9.597 2.4-3.199 5.2-4.398 8.4-3.599 1.826.456 3.131 1.781 4.576 3.247 2.352 2.387 5.075 5.151 11.024 5.151 6.4 0 10.4-3.199 12-9.598-2.4 3.199-5.2 4.399-8.4 3.6-1.825-.456-3.13-1.781-4.575-3.247-2.353-2.388-5.077-5.151-11.025-5.151zm-12 14.396c-6.4 0-10.4 3.199-12 9.598 2.4-3.199 5.2-4.399 8.4-3.599 1.825.457 3.13 1.781 4.575 3.246 2.353 2.388 5.077 5.152 11.025 5.152 6.4 0 10.4-3.199 12-9.598-2.4 3.199-5.2 4.399-8.4 3.599-1.826-.456-3.131-1.781-4.576-3.246-2.352-2.388-5.075-5.152-11.024-5.152z" fill="#00acc1"/></svg>